<?xml version="1.0" encoding="UTF-8" standalone="no"?>
<!DOCTYPE svg PUBLIC "-//W3C//DTD SVG 1.1//EN"
 "http://www.w3.org/Graphics/SVG/1.1/DTD/svg11.dtd">
<!-- Generated by graphviz version 2.43.0 (0)
 -->
<!-- Title: dependency&#45;cruiser output Pages: 1 -->
<svg width="574pt" height="458pt"
 viewBox="0.00 0.00 574.00 458.00" xmlns="http://www.w3.org/2000/svg" xmlns:xlink="http://www.w3.org/1999/xlink">
<g id="graph0" class="graph" transform="scale(1 1) rotate(0) translate(4 454)">
<title>dependency&#45;cruiser output</title>
<polygon fill="white" stroke="transparent" points="-4,4 -4,-454 570,-454 570,4 -4,4"/>
<g id="clust1" class="cluster">
<title>cluster_apis</title>
<path fill="#ffffff" stroke="black" stroke-width="2" d="M128.5,-146C128.5,-146 432,-146 432,-146 438,-146 444,-152 444,-158 444,-158 444,-430 444,-430 444,-436 438,-442 432,-442 432,-442 128.5,-442 128.5,-442 122.5,-442 116.5,-436 116.5,-430 116.5,-430 116.5,-158 116.5,-158 116.5,-152 122.5,-146 128.5,-146"/>
<text text-anchor="middle" x="280.25" y="-430.8" font-family="Helvetica,sans-Serif" font-weight="bold" font-size="9.00">apis</text>
</g>
<g id="clust2" class="cluster">
<title>cluster_apis/sushiswap</title>
<path fill="#ffffff" stroke="black" stroke-width="2" d="M237,-154C237,-154 422.5,-154 422.5,-154 428.5,-154 434.5,-160 434.5,-166 434.5,-166 434.5,-224 434.5,-224 434.5,-230 428.5,-236 422.5,-236 422.5,-236 237,-236 237,-236 231,-236 225,-230 225,-224 225,-224 225,-166 225,-166 225,-160 231,-154 237,-154"/>
<text text-anchor="middle" x="329.75" y="-224.8" font-family="Helvetica,sans-Serif" font-weight="bold" font-size="9.00">sushiswap</text>
</g>
<g id="clust3" class="cluster">
<title>cluster_apis/uniswap_V2</title>
<path fill="#ffffff" stroke="black" stroke-width="2" d="M237,-244C237,-244 424,-244 424,-244 430,-244 436,-250 436,-256 436,-256 436,-314 436,-314 436,-320 430,-326 424,-326 424,-326 237,-326 237,-326 231,-326 225,-320 225,-314 225,-314 225,-256 225,-256 225,-250 231,-244 237,-244"/>
<text text-anchor="middle" x="330.5" y="-314.8" font-family="Helvetica,sans-Serif" font-weight="bold" font-size="9.00">uniswap_V2</text>
</g>
<g id="clust4" class="cluster">
<title>cluster_apis/uniswap_V3</title>
<path fill="#ffffff" stroke="black" stroke-width="2" d="M237,-334C237,-334 424,-334 424,-334 430,-334 436,-340 436,-346 436,-346 436,-404 436,-404 436,-410 430,-416 424,-416 424,-416 237,-416 237,-416 231,-416 225,-410 225,-404 225,-404 225,-346 225,-346 225,-340 231,-334 237,-334"/>
<text text-anchor="middle" x="330.5" y="-404.8" font-family="Helvetica,sans-Serif" font-weight="bold" font-size="9.00">uniswap_V3</text>
</g>
<g id="clust5" class="cluster">
<title>cluster_node_modules</title>
<path fill="#ffffff" stroke="black" stroke-width="2" d="M464,-146C464,-146 546,-146 546,-146 552,-146 558,-152 558,-158 558,-158 558,-272 558,-272 558,-278 552,-284 546,-284 546,-284 464,-284 464,-284 458,-284 452,-278 452,-272 452,-272 452,-158 452,-158 452,-152 458,-146 464,-146"/>
<text text-anchor="middle" x="505" y="-272.8" font-family="Helvetica,sans-Serif" font-weight="bold" font-size="9.00">node_modules</text>
</g>
<g id="clust6" class="cluster">
<title>cluster_node_modules/@uniswap</title>
<path fill="#ffffff" stroke="black" stroke-width="2" d="M472,-180C472,-180 538,-180 538,-180 544,-180 550,-186 550,-192 550,-192 550,-220 550,-220 550,-226 544,-232 538,-232 538,-232 472,-232 472,-232 466,-232 460,-226 460,-220 460,-220 460,-192 460,-192 460,-186 466,-180 472,-180"/>
<text text-anchor="middle" x="505" y="-220.8" font-family="Helvetica,sans-Serif" font-weight="bold" font-size="9.00">@uniswap</text>
</g>
<g id="clust7" class="cluster">
<title>cluster_profitability_checks</title>
<path fill="#ffffff" stroke="black" stroke-width="2" d="M237,-26C237,-26 528,-26 528,-26 534,-26 540,-32 540,-38 540,-38 540,-126 540,-126 540,-132 534,-138 528,-138 528,-138 237,-138 237,-138 231,-138 225,-132 225,-126 225,-126 225,-38 225,-38 225,-32 231,-26 237,-26"/>
<text text-anchor="middle" x="382.5" y="-126.8" font-family="Helvetica,sans-Serif" font-weight="bold" font-size="9.00">profitability_checks</text>
</g>
<g id="clust8" class="cluster">
<title>cluster_src</title>
<path fill="#ffffff" stroke="black" stroke-width="2" d="M20,-26C20,-26 66,-26 66,-26 72,-26 78,-32 78,-38 78,-38 78,-66 78,-66 78,-72 72,-78 66,-78 66,-78 20,-78 20,-78 14,-78 8,-72 8,-66 8,-66 8,-38 8,-38 8,-32 14,-26 20,-26"/>
<text text-anchor="middle" x="43" y="-66.8" font-family="Helvetica,sans-Serif" font-weight="bold" font-size="9.00">src</text>
</g>
<!-- apis/index.js -->
<g id="node1" class="node">
<title>apis/index.js</title>
<g id="a_node1"><a xlink:href="apis/index.js" xlink:title="index.js">
<path fill="#ffffcc" stroke="black" d="M172.5,-240C172.5,-240 130.5,-240 130.5,-240 127.5,-240 124.5,-237 124.5,-234 124.5,-234 124.5,-228 124.5,-228 124.5,-225 127.5,-222 130.5,-222 130.5,-222 172.5,-222 172.5,-222 175.5,-222 178.5,-225 178.5,-228 178.5,-228 178.5,-234 178.5,-234 178.5,-237 175.5,-240 172.5,-240"/>
<text text-anchor="start" x="134" y="-228.8" font-family="Helvetica,sans-Serif" font-size="9.00">index.js</text>
</a>
</g>
</g>
<!-- apis/sushiswap/index.js -->
<g id="node2" class="node">
<title>apis/sushiswap/index.js</title>
<g id="a_node2"><a xlink:href="apis/sushiswap/index.js" xlink:title="index.js">
<path fill="#ffffcc" stroke="black" d="M281,-210C281,-210 239,-210 239,-210 236,-210 233,-207 233,-204 233,-204 233,-198 233,-198 233,-195 236,-192 239,-192 239,-192 281,-192 281,-192 284,-192 287,-195 287,-198 287,-198 287,-204 287,-204 287,-207 284,-210 281,-210"/>
<text text-anchor="start" x="242.5" y="-198.8" font-family="Helvetica,sans-Serif" font-size="9.00">index.js</text>
</a>
</g>
</g>
<!-- apis/index.js&#45;&gt;apis/sushiswap/index.js -->
<g id="edge1" class="edge">
<title>apis/index.js&#45;&gt;apis/sushiswap/index.js</title>
<path fill="none" stroke="#000000" stroke-width="2" stroke-opacity="0.200000" d="M178.55,-223.66C193.12,-219.56 211.41,-214.41 226.86,-210.05"/>
<polygon fill="#000000" fill-opacity="0.200000" stroke="#000000" stroke-width="2" stroke-opacity="0.200000" points="227.64,-212.02 232.85,-208.37 226.5,-207.97 227.64,-212.02"/>
</g>
<!-- apis/uniswap_V2/index.js -->
<g id="node3" class="node">
<title>apis/uniswap_V2/index.js</title>
<g id="a_node3"><a xlink:href="apis/uniswap_V2/index.js" xlink:title="index.js">
<path fill="#ffffcc" stroke="black" d="M281,-270C281,-270 239,-270 239,-270 236,-270 233,-267 233,-264 233,-264 233,-258 233,-258 233,-255 236,-252 239,-252 239,-252 281,-252 281,-252 284,-252 287,-255 287,-258 287,-258 287,-264 287,-264 287,-267 284,-270 281,-270"/>
<text text-anchor="start" x="242.5" y="-258.8" font-family="Helvetica,sans-Serif" font-size="9.00">index.js</text>
</a>
</g>
</g>
<!-- apis/index.js&#45;&gt;apis/uniswap_V2/index.js -->
<g id="edge2" class="edge">
<title>apis/index.js&#45;&gt;apis/uniswap_V2/index.js</title>
<path fill="none" stroke="#000000" stroke-width="2" stroke-opacity="0.200000" d="M178.55,-238.34C193.12,-242.44 211.41,-247.59 226.86,-251.95"/>
<polygon fill="#000000" fill-opacity="0.200000" stroke="#000000" stroke-width="2" stroke-opacity="0.200000" points="226.5,-254.03 232.85,-253.63 227.64,-249.98 226.5,-254.03"/>
</g>
<!-- apis/uniswap_V3/index.js -->
<g id="node4" class="node">
<title>apis/uniswap_V3/index.js</title>
<g id="a_node4"><a xlink:href="apis/uniswap_V3/index.js" xlink:title="index.js">
<path fill="#ffffcc" stroke="black" d="M281,-360C281,-360 239,-360 239,-360 236,-360 233,-357 233,-354 233,-354 233,-348 233,-348 233,-345 236,-342 239,-342 239,-342 281,-342 281,-342 284,-342 287,-345 287,-348 287,-348 287,-354 287,-354 287,-357 284,-360 281,-360"/>
<text text-anchor="start" x="242.5" y="-348.8" font-family="Helvetica,sans-Serif" font-size="9.00">index.js</text>
</a>
</g>
</g>
<!-- apis/index.js&#45;&gt;apis/uniswap_V3/index.js -->
<g id="edge3" class="edge">
<title>apis/index.js&#45;&gt;apis/uniswap_V3/index.js</title>
<path fill="none" stroke="#000000" stroke-width="2" stroke-opacity="0.200000" d="M157.76,-240.23C168.6,-258.67 194.92,-300.75 225,-329 228.6,-332.38 232.79,-335.57 236.97,-338.41"/>
<polygon fill="#000000" fill-opacity="0.200000" stroke="#000000" stroke-width="2" stroke-opacity="0.200000" points="236.04,-340.31 242.22,-341.81 238.33,-336.78 236.04,-340.31"/>
</g>
<!-- apis/sushiswap/sushi_swap_queries.js -->
<g id="node5" class="node">
<title>apis/sushiswap/sushi_swap_queries.js</title>
<g id="a_node5"><a xlink:href="apis/sushiswap/sushi_swap_queries.js" xlink:title="sushi_swap_queries.js">
<path fill="#ffffcc" stroke="black" d="M415.5,-180C415.5,-180 312.5,-180 312.5,-180 309.5,-180 306.5,-177 306.5,-174 306.5,-174 306.5,-168 306.5,-168 306.5,-165 309.5,-162 312.5,-162 312.5,-162 415.5,-162 415.5,-162 418.5,-162 421.5,-165 421.5,-168 421.5,-168 421.5,-174 421.5,-174 421.5,-177 418.5,-180 415.5,-180"/>
<text text-anchor="start" x="314.5" y="-168.8" font-family="Helvetica,sans-Serif" font-size="9.00">sushi_swap_queries.js</text>
</a>
</g>
</g>
<!-- apis/sushiswap/index.js&#45;&gt;apis/sushiswap/sushi_swap_queries.js -->
<g id="edge4" class="edge">
<title>apis/sushiswap/index.js&#45;&gt;apis/sushiswap/sushi_swap_queries.js</title>
<path fill="none" stroke="#000000" stroke-width="2" stroke-opacity="0.200000" d="M283.09,-191.91C288.57,-189.83 294.46,-187.72 300,-186 304.94,-184.47 310.14,-183 315.34,-181.63"/>
<polygon fill="#000000" fill-opacity="0.200000" stroke="#000000" stroke-width="2" stroke-opacity="0.200000" points="316.15,-183.59 321.44,-180.06 315.11,-179.52 316.15,-183.59"/>
</g>
<!-- apis/sushiswap/sushi_swap_subgraph.js -->
<g id="node6" class="node">
<title>apis/sushiswap/sushi_swap_subgraph.js</title>
<g id="a_node6"><a xlink:href="apis/sushiswap/sushi_swap_subgraph.js" xlink:title="sushi_swap_subgraph.js">
<path fill="#ffffcc" stroke="black" d="M420.5,-210C420.5,-210 307.5,-210 307.5,-210 304.5,-210 301.5,-207 301.5,-204 301.5,-204 301.5,-198 301.5,-198 301.5,-195 304.5,-192 307.5,-192 307.5,-192 420.5,-192 420.5,-192 423.5,-192 426.5,-195 426.5,-198 426.5,-198 426.5,-204 426.5,-204 426.5,-207 423.5,-210 420.5,-210"/>
<text text-anchor="start" x="309.5" y="-198.8" font-family="Helvetica,sans-Serif" font-size="9.00">sushi_swap_subgraph.js</text>
</a>
</g>
</g>
<!-- apis/sushiswap/index.js&#45;&gt;apis/sushiswap/sushi_swap_subgraph.js -->
<g id="edge5" class="edge">
<title>apis/sushiswap/index.js&#45;&gt;apis/sushiswap/sushi_swap_subgraph.js</title>
<path fill="none" stroke="#000000" stroke-width="2" stroke-opacity="0.200000" d="M287,-201C289.53,-201 292.16,-201 294.86,-201"/>
<polygon fill="#000000" fill-opacity="0.200000" stroke="#000000" stroke-width="2" stroke-opacity="0.200000" points="295.29,-203.1 301.29,-201 295.29,-198.9 295.29,-203.1"/>
</g>
<!-- apis/uniswap_V2/uniswap_V2_queries.js -->
<g id="node8" class="node">
<title>apis/uniswap_V2/uniswap_V2_queries.js</title>
<g id="a_node8"><a xlink:href="apis/uniswap_V2/uniswap_V2_queries.js" xlink:title="uniswap_V2_queries.js">
<path fill="#ffffcc" stroke="black" d="M417,-270C417,-270 311,-270 311,-270 308,-270 305,-267 305,-264 305,-264 305,-258 305,-258 305,-255 308,-252 311,-252 311,-252 417,-252 417,-252 420,-252 423,-255 423,-258 423,-258 423,-264 423,-264 423,-267 420,-270 417,-270"/>
<text text-anchor="start" x="313" y="-258.8" font-family="Helvetica,sans-Serif" font-size="9.00">uniswap_V2_queries.js</text>
</a>
</g>
</g>
<!-- apis/uniswap_V2/index.js&#45;&gt;apis/uniswap_V2/uniswap_V2_queries.js -->
<g id="edge7" class="edge">
<title>apis/uniswap_V2/index.js&#45;&gt;apis/uniswap_V2/uniswap_V2_queries.js</title>
<path fill="none" stroke="#000000" stroke-width="2" stroke-opacity="0.200000" d="M287,-261C290.73,-261 294.69,-261 298.78,-261"/>
<polygon fill="#000000" fill-opacity="0.200000" stroke="#000000" stroke-width="2" stroke-opacity="0.200000" points="298.84,-263.1 304.84,-261 298.84,-258.9 298.84,-263.1"/>
</g>
<!-- apis/uniswap_V2/uniswap_V2_subgraph.js -->
<g id="node9" class="node">
<title>apis/uniswap_V2/uniswap_V2_subgraph.js</title>
<g id="a_node9"><a xlink:href="apis/uniswap_V2/uniswap_V2_subgraph.js" xlink:title="uniswap_V2_subgraph.js">
<path fill="#ffffcc" stroke="black" d="M422,-300C422,-300 306,-300 306,-300 303,-300 300,-297 300,-294 300,-294 300,-288 300,-288 300,-285 303,-282 306,-282 306,-282 422,-282 422,-282 425,-282 428,-285 428,-288 428,-288 428,-294 428,-294 428,-297 425,-300 422,-300"/>
<text text-anchor="start" x="308" y="-288.8" font-family="Helvetica,sans-Serif" font-size="9.00">uniswap_V2_subgraph.js</text>
</a>
</g>
</g>
<!-- apis/uniswap_V2/index.js&#45;&gt;apis/uniswap_V2/uniswap_V2_subgraph.js -->
<g id="edge8" class="edge">
<title>apis/uniswap_V2/index.js&#45;&gt;apis/uniswap_V2/uniswap_V2_subgraph.js</title>
<path fill="none" stroke="#000000" stroke-width="2" stroke-opacity="0.200000" d="M283.09,-270.09C288.57,-272.17 294.46,-274.28 300,-276 304.94,-277.53 310.14,-279 315.34,-280.37"/>
<polygon fill="#000000" fill-opacity="0.200000" stroke="#000000" stroke-width="2" stroke-opacity="0.200000" points="315.11,-282.48 321.44,-281.94 316.15,-278.41 315.11,-282.48"/>
</g>
<!-- apis/uniswap_V3/uniswap_V3_queries.js -->
<g id="node10" class="node">
<title>apis/uniswap_V3/uniswap_V3_queries.js</title>
<g id="a_node10"><a xlink:href="apis/uniswap_V3/uniswap_V3_queries.js" xlink:title="uniswap_V3_queries.js">
<path fill="#ffffcc" stroke="black" d="M417,-360C417,-360 311,-360 311,-360 308,-360 305,-357 305,-354 305,-354 305,-348 305,-348 305,-345 308,-342 311,-342 311,-342 417,-342 417,-342 420,-342 423,-345 423,-348 423,-348 423,-354 423,-354 423,-357 420,-360 417,-360"/>
<text text-anchor="start" x="313" y="-348.8" font-family="Helvetica,sans-Serif" font-size="9.00">uniswap_V3_queries.js</text>
</a>
</g>
</g>
<!-- apis/uniswap_V3/index.js&#45;&gt;apis/uniswap_V3/uniswap_V3_queries.js -->
<g id="edge10" class="edge">
<title>apis/uniswap_V3/index.js&#45;&gt;apis/uniswap_V3/uniswap_V3_queries.js</title>
<path fill="none" stroke="#000000" stroke-width="2" stroke-opacity="0.200000" d="M287,-351C290.73,-351 294.69,-351 298.78,-351"/>
<polygon fill="#000000" fill-opacity="0.200000" stroke="#000000" stroke-width="2" stroke-opacity="0.200000" points="298.84,-353.1 304.84,-351 298.84,-348.9 298.84,-353.1"/>
</g>
<!-- apis/uniswap_V3/uniswap_V3_subgraph.js -->
<g id="node11" class="node">
<title>apis/uniswap_V3/uniswap_V3_subgraph.js</title>
<g id="a_node11"><a xlink:href="apis/uniswap_V3/uniswap_V3_subgraph.js" xlink:title="uniswap_V3_subgraph.js">
<path fill="#ffffcc" stroke="black" d="M422,-390C422,-390 306,-390 306,-390 303,-390 300,-387 300,-384 300,-384 300,-378 300,-378 300,-375 303,-372 306,-372 306,-372 422,-372 422,-372 425,-372 428,-375 428,-378 428,-378 428,-384 428,-384 428,-387 425,-390 422,-390"/>
<text text-anchor="start" x="308" y="-378.8" font-family="Helvetica,sans-Serif" font-size="9.00">uniswap_V3_subgraph.js</text>
</a>
</g>
</g>
<!-- apis/uniswap_V3/index.js&#45;&gt;apis/uniswap_V3/uniswap_V3_subgraph.js -->
<g id="edge11" class="edge">
<title>apis/uniswap_V3/index.js&#45;&gt;apis/uniswap_V3/uniswap_V3_subgraph.js</title>
<path fill="none" stroke="#000000" stroke-width="2" stroke-opacity="0.200000" d="M283.09,-360.09C288.57,-362.17 294.46,-364.28 300,-366 304.94,-367.53 310.14,-369 315.34,-370.37"/>
<polygon fill="#000000" fill-opacity="0.200000" stroke="#000000" stroke-width="2" stroke-opacity="0.200000" points="315.11,-372.48 321.44,-371.94 316.15,-368.41 315.11,-372.48"/>
</g>
<!-- node_modules/axios -->
<g id="node7" class="node">
<title>node_modules/axios</title>
<g id="a_node7"><a xlink:href="https://www.npmjs.com/package/axios" xlink:title="axios">
<polygon fill="#c40b0a" fill-opacity="0.101961" stroke="black" points="532,-258 480,-258 478,-256 478,-240 530,-240 532,-242 532,-258"/>
<polyline fill="none" stroke="black" points="530,-256 478,-256 "/>
<polyline fill="none" stroke="black" points="530,-256 530,-240 "/>
<polyline fill="none" stroke="black" points="530,-256 532,-258 "/>
<text text-anchor="start" x="493.5" y="-246.8" font-family="Helvetica,sans-Serif" font-size="9.00" fill="#c40b0a">axios</text>
</a>
</g>
</g>
<!-- apis/sushiswap/sushi_swap_subgraph.js&#45;&gt;node_modules/axios -->
<g id="edge6" class="edge">
<title>apis/sushiswap/sushi_swap_subgraph.js&#45;&gt;node_modules/axios</title>
<g id="a_edge6"><a xlink:title="no&#45;non&#45;package&#45;json">
<path fill="none" stroke="red" d="M386.21,-210.04C403.69,-217.31 429.2,-227.5 452,-235 458.39,-237.1 465.3,-239.13 471.93,-240.96"/>
<polygon fill="red" stroke="red" points="471.57,-243.04 477.91,-242.58 472.67,-238.98 471.57,-243.04"/>
</a>
</g>
<text text-anchor="middle" x="479.31" y="-230.76" font-family="Helvetica,sans-Serif" font-size="9.00" fill="red">no&#45;non&#45;package&#45;json</text>
</g>
<!-- apis/uniswap_V2/uniswap_V2_subgraph.js&#45;&gt;node_modules/axios -->
<g id="edge9" class="edge">
<title>apis/uniswap_V2/uniswap_V2_subgraph.js&#45;&gt;node_modules/axios</title>
<g id="a_edge9"><a xlink:title="no&#45;non&#45;package&#45;json">
<path fill="none" stroke="red" d="M421.51,-281.95C429.14,-280.24 436.81,-278.27 444,-276 456.71,-272 470.3,-266.03 481.32,-260.73"/>
<polygon fill="red" stroke="red" points="482.37,-262.55 486.83,-258.03 480.52,-258.78 482.37,-262.55"/>
</a>
</g>
<text text-anchor="middle" x="407.36" y="-275.01" font-family="Helvetica,sans-Serif" font-size="9.00" fill="red">no&#45;non&#45;package&#45;json</text>
</g>
<!-- apis/uniswap_V3/uniswap_V3_subgraph.js&#45;&gt;node_modules/axios -->
<g id="edge12" class="edge">
<title>apis/uniswap_V3/uniswap_V3_subgraph.js&#45;&gt;node_modules/axios</title>
<g id="a_edge12"><a xlink:title="no&#45;non&#45;package&#45;json">
<path fill="none" stroke="red" d="M428.08,-374.6C433.77,-372.41 439.19,-369.6 444,-366 478.38,-340.28 494.63,-289.21 500.83,-263.91"/>
<polygon fill="red" stroke="red" points="502.87,-264.39 502.19,-258.07 498.78,-263.43 502.87,-264.39"/>
</a>
</g>
<text text-anchor="middle" x="431.17" y="-316.11" font-family="Helvetica,sans-Serif" font-size="9.00" fill="red">no&#45;non&#45;package&#45;json</text>
</g>
<!-- constants.js -->
<g id="node12" class="node">
<title>constants.js</title>
<g id="a_node12"><a xlink:href="constants.js" xlink:title="constants.js">
<path fill="#ffffcc" stroke="black" d="M534.5,-18C534.5,-18 475.5,-18 475.5,-18 472.5,-18 469.5,-15 469.5,-12 469.5,-12 469.5,-6 469.5,-6 469.5,-3 472.5,0 475.5,0 475.5,0 534.5,0 534.5,0 537.5,0 540.5,-3 540.5,-6 540.5,-6 540.5,-12 540.5,-12 540.5,-15 537.5,-18 534.5,-18"/>
<text text-anchor="middle" x="505" y="-6.8" font-family="Helvetica,sans-Serif" font-size="9.00">constants.js</text>
</a>
</g>
</g>
<!-- mapping_simple_paths.js -->
<g id="node13" class="node">
<title>mapping_simple_paths.js</title>
<g id="a_node13"><a xlink:href="mapping_simple_paths.js" xlink:title="mapping_simple_paths.js">
<path fill="#ffffcc" stroke="black" d="M211,-80C211,-80 92,-80 92,-80 89,-80 86,-77 86,-74 86,-74 86,-68 86,-68 86,-65 89,-62 92,-62 92,-62 211,-62 211,-62 214,-62 217,-65 217,-68 217,-68 217,-74 217,-74 217,-77 214,-80 211,-80"/>
<text text-anchor="middle" x="151.5" y="-68.8" font-family="Helvetica,sans-Serif" font-size="9.00">mapping_simple_paths.js</text>
</a>
</g>
</g>
<!-- node_modules/@uniswap/v3&#45;periphery -->
<g id="node14" class="node">
<title>node_modules/@uniswap/v3&#45;periphery</title>
<g id="a_node14"><a xlink:href="https://www.npmjs.com/package/@uniswap/v3-periphery" xlink:title="v3&#45;periphery">
<polygon fill="#c40b0a" fill-opacity="0.101961" stroke="black" points="542,-206 470,-206 468,-204 468,-188 540,-188 542,-190 542,-206"/>
<polyline fill="none" stroke="black" points="540,-204 468,-204 "/>
<polyline fill="none" stroke="black" points="540,-204 540,-188 "/>
<polyline fill="none" stroke="black" points="540,-204 542,-206 "/>
<text text-anchor="start" x="476" y="-194.8" font-family="Helvetica,sans-Serif" font-size="9.00" fill="#c40b0a">v3&#45;periphery</text>
</a>
</g>
</g>
<!-- node_modules/ethers -->
<g id="node15" class="node">
<title>node_modules/ethers</title>
<g id="a_node15"><a xlink:href="https://www.npmjs.com/package/ethers" xlink:title="ethers">
<polygon fill="#c40b0a" fill-opacity="0.101961" stroke="black" points="532,-172 480,-172 478,-170 478,-154 530,-154 532,-156 532,-172"/>
<polyline fill="none" stroke="black" points="530,-170 478,-170 "/>
<polyline fill="none" stroke="black" points="530,-170 530,-154 "/>
<polyline fill="none" stroke="black" points="530,-170 532,-172 "/>
<text text-anchor="start" x="490.5" y="-160.8" font-family="Helvetica,sans-Serif" font-size="9.00" fill="#c40b0a">ethers</text>
</a>
</g>
</g>
<!-- profitability_checks/index.js -->
<g id="node16" class="node">
<title>profitability_checks/index.js</title>
<g id="a_node16"><a xlink:href="profitability_checks/index.js" xlink:title="index.js">
<path fill="#ffffcc" stroke="black" d="M281,-52C281,-52 239,-52 239,-52 236,-52 233,-49 233,-46 233,-46 233,-40 233,-40 233,-37 236,-34 239,-34 239,-34 281,-34 281,-34 284,-34 287,-37 287,-40 287,-40 287,-46 287,-46 287,-49 284,-52 281,-52"/>
<text text-anchor="start" x="242.5" y="-40.8" font-family="Helvetica,sans-Serif" font-size="9.00">index.js</text>
</a>
</g>
</g>
<!-- profitability_checks/index.js&#45;&gt;constants.js -->
<g id="edge13" class="edge">
<title>profitability_checks/index.js&#45;&gt;constants.js</title>
<path fill="none" stroke="#000000" stroke-width="2" stroke-opacity="0.200000" d="M281.31,-33.98C287.23,-31.68 293.78,-29.46 300,-28 355.51,-15 421.47,-10.83 463.04,-9.53"/>
<polygon fill="#000000" fill-opacity="0.200000" stroke="#000000" stroke-width="2" stroke-opacity="0.200000" points="463.31,-11.62 469.25,-9.35 463.19,-7.43 463.31,-11.62"/>
</g>
<!-- profitability_checks/intial_check.js -->
<g id="node17" class="node">
<title>profitability_checks/intial_check.js</title>
<g id="a_node17"><a xlink:href="profitability_checks/intial_check.js" xlink:title="intial_check.js">
<path fill="#ffffcc" stroke="black" d="M398,-52C398,-52 330,-52 330,-52 327,-52 324,-49 324,-46 324,-46 324,-40 324,-40 324,-37 327,-34 330,-34 330,-34 398,-34 398,-34 401,-34 404,-37 404,-40 404,-40 404,-46 404,-46 404,-49 401,-52 398,-52"/>
<text text-anchor="start" x="332" y="-40.8" font-family="Helvetica,sans-Serif" font-size="9.00">intial_check.js</text>
</a>
</g>
</g>
<!-- profitability_checks/index.js&#45;&gt;profitability_checks/intial_check.js -->
<g id="edge14" class="edge">
<title>profitability_checks/index.js&#45;&gt;profitability_checks/intial_check.js</title>
<path fill="none" stroke="#000000" stroke-width="2" stroke-opacity="0.200000" d="M287,-43C296.38,-43 307.25,-43 317.79,-43"/>
<polygon fill="#000000" fill-opacity="0.200000" stroke="#000000" stroke-width="2" stroke-opacity="0.200000" points="317.94,-45.1 323.94,-43 317.94,-40.9 317.94,-45.1"/>
</g>
<!-- profitability_checks/off_chain_check.js -->
<g id="node18" class="node">
<title>profitability_checks/off_chain_check.js</title>
<g id="a_node18"><a xlink:href="profitability_checks/off_chain_check.js" xlink:title="off_chain_check.js">
<path fill="#ffffcc" stroke="black" d="M407,-82C407,-82 321,-82 321,-82 318,-82 315,-79 315,-76 315,-76 315,-70 315,-70 315,-67 318,-64 321,-64 321,-64 407,-64 407,-64 410,-64 413,-67 413,-70 413,-70 413,-76 413,-76 413,-79 410,-82 407,-82"/>
<text text-anchor="start" x="323" y="-70.8" font-family="Helvetica,sans-Serif" font-size="9.00">off_chain_check.js</text>
</a>
</g>
</g>
<!-- profitability_checks/index.js&#45;&gt;profitability_checks/off_chain_check.js -->
<g id="edge15" class="edge">
<title>profitability_checks/index.js&#45;&gt;profitability_checks/off_chain_check.js</title>
<path fill="none" stroke="#000000" stroke-width="2" stroke-opacity="0.200000" d="M283.09,-52.09C288.57,-54.17 294.46,-56.28 300,-58 304.94,-59.53 310.14,-61 315.34,-62.37"/>
<polygon fill="#000000" fill-opacity="0.200000" stroke="#000000" stroke-width="2" stroke-opacity="0.200000" points="315.11,-64.48 321.44,-63.94 316.15,-60.41 315.11,-64.48"/>
</g>
<!-- profitability_checks/on_chain_check.js -->
<g id="node19" class="node">
<title>profitability_checks/on_chain_check.js</title>
<g id="a_node19"><a xlink:href="profitability_checks/on_chain_check.js" xlink:title="on_chain_check.js">
<path fill="#ffffcc" stroke="black" d="M407,-112C407,-112 321,-112 321,-112 318,-112 315,-109 315,-106 315,-106 315,-100 315,-100 315,-97 318,-94 321,-94 321,-94 407,-94 407,-94 410,-94 413,-97 413,-100 413,-100 413,-106 413,-106 413,-109 410,-112 407,-112"/>
<text text-anchor="start" x="323" y="-100.8" font-family="Helvetica,sans-Serif" font-size="9.00">on_chain_check.js</text>
</a>
</g>
</g>
<!-- profitability_checks/index.js&#45;&gt;profitability_checks/on_chain_check.js -->
<g id="edge16" class="edge">
<title>profitability_checks/index.js&#45;&gt;profitability_checks/on_chain_check.js</title>
<path fill="none" stroke="#000000" stroke-width="2" stroke-opacity="0.200000" d="M266.39,-52.1C272.99,-62.43 285.15,-78.99 300,-88 302.88,-89.75 305.96,-91.29 309.14,-92.66"/>
<polygon fill="#000000" fill-opacity="0.200000" stroke="#000000" stroke-width="2" stroke-opacity="0.200000" points="308.6,-94.7 314.95,-94.93 310.12,-90.79 308.6,-94.7"/>
</g>
<!-- profitability_checks/intial_check.js&#45;&gt;constants.js -->
<g id="edge17" class="edge">
<title>profitability_checks/intial_check.js&#45;&gt;constants.js</title>
<path fill="none" stroke="#000000" stroke-width="2" stroke-opacity="0.200000" d="M404.04,-34.4C416.8,-31.51 431.03,-28.21 444,-25 450.87,-23.3 458.16,-21.42 465.2,-19.57"/>
<polygon fill="#000000" fill-opacity="0.200000" stroke="#000000" stroke-width="2" stroke-opacity="0.200000" points="465.78,-21.59 471.05,-18.02 464.71,-17.53 465.78,-21.59"/>
</g>
<!-- profitability_checks/utlis.js -->
<g id="node20" class="node">
<title>profitability_checks/utlis.js</title>
<g id="a_node20"><a xlink:href="profitability_checks/utlis.js" xlink:title="utlis.js">
<path fill="#ffffcc" stroke="black" d="M526,-82C526,-82 484,-82 484,-82 481,-82 478,-79 478,-76 478,-76 478,-70 478,-70 478,-67 481,-64 484,-64 484,-64 526,-64 526,-64 529,-64 532,-67 532,-70 532,-70 532,-76 532,-76 532,-79 529,-82 526,-82"/>
<text text-anchor="start" x="490.5" y="-70.8" font-family="Helvetica,sans-Serif" font-size="9.00">utlis.js</text>
</a>
</g>
</g>
<!-- profitability_checks/intial_check.js&#45;&gt;profitability_checks/utlis.js -->
<g id="edge18" class="edge">
<title>profitability_checks/intial_check.js&#45;&gt;profitability_checks/utlis.js</title>
<path fill="none" stroke="#000000" stroke-width="2" stroke-opacity="0.200000" d="M404.07,-49.96C416.83,-52.35 431.05,-55.15 444,-58 453.03,-59.98 462.78,-62.33 471.73,-64.57"/>
<polygon fill="#000000" fill-opacity="0.200000" stroke="#000000" stroke-width="2" stroke-opacity="0.200000" points="471.46,-66.67 477.79,-66.1 472.49,-62.6 471.46,-66.67"/>
</g>
<!-- profitability_checks/off_chain_check.js&#45;&gt;constants.js -->
<g id="edge19" class="edge">
<title>profitability_checks/off_chain_check.js&#45;&gt;constants.js</title>
<path fill="none" stroke="#000000" stroke-width="2" stroke-opacity="0.200000" d="M413.04,-72.72C424.42,-70.44 435.66,-66.04 444,-58 455.49,-46.93 440.93,-34.5 452,-23 455.28,-19.59 459.3,-16.98 463.63,-14.99"/>
<polygon fill="#000000" fill-opacity="0.200000" stroke="#000000" stroke-width="2" stroke-opacity="0.200000" points="464.44,-16.93 469.26,-12.78 462.91,-13.02 464.44,-16.93"/>
</g>
<!-- profitability_checks/off_chain_check.js&#45;&gt;profitability_checks/utlis.js -->
<g id="edge20" class="edge">
<title>profitability_checks/off_chain_check.js&#45;&gt;profitability_checks/utlis.js</title>
<path fill="none" stroke="#000000" stroke-width="2" stroke-opacity="0.200000" d="M413.23,-73C432.5,-73 454.19,-73 471.53,-73"/>
<polygon fill="#000000" fill-opacity="0.200000" stroke="#000000" stroke-width="2" stroke-opacity="0.200000" points="471.71,-75.1 477.71,-73 471.71,-70.9 471.71,-75.1"/>
</g>
<!-- profitability_checks/on_chain_check.js&#45;&gt;constants.js -->
<g id="edge21" class="edge">
<title>profitability_checks/on_chain_check.js&#45;&gt;constants.js</title>
<path fill="none" stroke="#000000" stroke-width="2" stroke-opacity="0.200000" d="M413.21,-103.37C424.72,-101.11 435.98,-96.56 444,-88 463.9,-66.76 432.91,-44.98 452,-23 455.19,-19.33 459.23,-16.57 463.65,-14.51"/>
<polygon fill="#000000" fill-opacity="0.200000" stroke="#000000" stroke-width="2" stroke-opacity="0.200000" points="464.58,-16.39 469.4,-12.25 463.05,-12.48 464.58,-16.39"/>
</g>
<!-- profitability_checks/on_chain_check.js&#45;&gt;node_modules/@uniswap/v3&#45;periphery -->
<g id="edge23" class="edge">
<title>profitability_checks/on_chain_check.js&#45;&gt;node_modules/@uniswap/v3&#45;periphery</title>
<path fill="none" stroke="#000000" stroke-opacity="0.200000" d="M390.04,-112.13C407.71,-119.85 430.55,-132.6 444,-151 452.91,-163.18 441.37,-173.29 452,-184 454.91,-186.93 458.37,-189.23 462.1,-191.04"/>
<polygon fill="#000000" fill-opacity="0.200000" stroke="#000000" stroke-opacity="0.200000" points="461.39,-193.02 467.74,-193.35 462.98,-189.13 461.39,-193.02"/>
</g>
<!-- profitability_checks/on_chain_check.js&#45;&gt;node_modules/ethers -->
<g id="edge24" class="edge">
<title>profitability_checks/on_chain_check.js&#45;&gt;node_modules/ethers</title>
<path fill="none" stroke="#000000" stroke-opacity="0.200000" d="M385.71,-112.13C403.32,-119.87 429.29,-131.24 452,-141 459.97,-144.42 468.63,-148.11 476.57,-151.47"/>
<polygon fill="#000000" fill-opacity="0.200000" stroke="#000000" stroke-opacity="0.200000" points="476.13,-153.56 482.47,-153.96 477.76,-149.69 476.13,-153.56"/>
</g>
<!-- profitability_checks/on_chain_check.js&#45;&gt;profitability_checks/utlis.js -->
<g id="edge22" class="edge">
<title>profitability_checks/on_chain_check.js&#45;&gt;profitability_checks/utlis.js</title>
<path fill="none" stroke="#000000" stroke-width="2" stroke-opacity="0.200000" d="M413.13,-94.32C423.35,-92.35 434.05,-90.19 444,-88 453.03,-86.02 462.78,-83.67 471.73,-81.43"/>
<polygon fill="#000000" fill-opacity="0.200000" stroke="#000000" stroke-width="2" stroke-opacity="0.200000" points="472.49,-83.4 477.79,-79.9 471.46,-79.33 472.49,-83.4"/>
</g>
<!-- src/index.js -->
<g id="node21" class="node">
<title>src/index.js</title>
<g id="a_node21"><a xlink:href="src/index.js" xlink:title="index.js">
<path fill="#ffffcc" stroke="black" d="M64,-52C64,-52 22,-52 22,-52 19,-52 16,-49 16,-46 16,-46 16,-40 16,-40 16,-37 19,-34 22,-34 22,-34 64,-34 64,-34 67,-34 70,-37 70,-40 70,-40 70,-46 70,-46 70,-49 67,-52 64,-52"/>
<text text-anchor="start" x="25.5" y="-40.8" font-family="Helvetica,sans-Serif" font-size="9.00">index.js</text>
</a>
</g>
</g>
<!-- src/index.js&#45;&gt;apis/index.js -->
<g id="edge25" class="edge">
<title>src/index.js&#45;&gt;apis/index.js</title>
<path fill="none" stroke="#000000" stroke-width="2" stroke-opacity="0.200000" d="M49.14,-52.07C66.17,-82.14 120.94,-178.82 142.07,-216.12"/>
<polygon fill="#000000" fill-opacity="0.200000" stroke="#000000" stroke-width="2" stroke-opacity="0.200000" points="140.38,-217.4 145.16,-221.58 144.03,-215.32 140.38,-217.4"/>
</g>
<!-- src/index.js&#45;&gt;constants.js -->
<g id="edge26" class="edge">
<title>src/index.js&#45;&gt;constants.js</title>
<path fill="none" stroke="#000000" stroke-width="2" stroke-opacity="0.200000" d="M70.04,-38.11C116.17,-29.72 215.38,-12.92 300,-7 363.84,-2.53 380.01,-5.93 444,-7 450.17,-7.1 456.7,-7.27 463.1,-7.45"/>
<polygon fill="#000000" fill-opacity="0.200000" stroke="#000000" stroke-width="2" stroke-opacity="0.200000" points="463.36,-9.56 469.42,-7.65 463.49,-5.37 463.36,-9.56"/>
</g>
<!-- src/index.js&#45;&gt;mapping_simple_paths.js -->
<g id="edge27" class="edge">
<title>src/index.js&#45;&gt;mapping_simple_paths.js</title>
<path fill="none" stroke="#000000" stroke-width="2" stroke-opacity="0.200000" d="M70.05,-49.85C82.12,-53.02 96.74,-56.87 110.18,-60.4"/>
<polygon fill="#000000" fill-opacity="0.200000" stroke="#000000" stroke-width="2" stroke-opacity="0.200000" points="109.93,-62.5 116.27,-62 111,-58.44 109.93,-62.5"/>
</g>
<!-- src/index.js&#45;&gt;profitability_checks/index.js -->
<g id="edge28" class="edge">
<title>src/index.js&#45;&gt;profitability_checks/index.js</title>
<path fill="none" stroke="#000000" stroke-width="2" stroke-opacity="0.200000" d="M70.36,-43C109.8,-43 184.07,-43 226.7,-43"/>
<polygon fill="#000000" fill-opacity="0.200000" stroke="#000000" stroke-width="2" stroke-opacity="0.200000" points="226.76,-45.1 232.76,-43 226.76,-40.9 226.76,-45.1"/>
</g>
</g>
</svg>
